<?xml version="1.0" encoding="utf-8"?>
<!-- Generator: Adobe Illustrator 24.0.0, SVG Export Plug-In . SVG Version: 6.00 Build 0)  -->
<svg version="1.1" id="Layer_1" xmlns="http://www.w3.org/2000/svg" xmlns:xlink="http://www.w3.org/1999/xlink" x="0px" y="0px"
	 viewBox="0 0 512 512" style="enable-background:new 0 0 512 512;" xml:space="preserve">
<style type="text/css">
	.st0{fill:#A2A3B7;}
	.st1{display:none;fill:#A2A3B7;}
</style>
<g id="Outline">
	<path class="st0" d="M472,16H40c-13.3,0-24,10.7-24,24v432c0,13.3,10.7,24,24,24h432c13.3,0,24-10.7,24-24V40
		C496,26.7,485.3,16,472,16z M480,472c0,4.4-3.6,8-8,8H40c-4.4,0-8-3.6-8-8V96h448V472z M32,80V40c0-4.4,3.6-8,8-8h432
		c4.4,0,8,3.6,8,8v40H32z"/>
	<path class="st1" d="M50.3,50.3C48.8,51.8,48,53.9,48,56c0,1,0.2,2.1,0.6,3c0.4,1,0.9,1.9,1.7,2.6c3.1,3.1,8.2,3.1,11.4,0
		s3.1-8.2,0-11.4C58.5,47.4,53.5,47.4,50.3,50.3z"/>
	<path class="st1" d="M82.3,50.3C80.9,51.9,80,53.9,80,56c0,0.5,0.1,1.1,0.2,1.6s0.2,1,0.5,1.4c0.2,0.5,0.4,1,0.7,1.4
		c0.3,0.4,0.6,0.8,1,1.2c3.2,3.1,8.2,3.1,11.4,0l1-1.2c0.3-0.4,0.5-0.9,0.7-1.4s0.4-0.9,0.5-1.4s0.1-1.1,0.2-1.6c0-4.4-3.5-8-8-8
		C85.9,47.9,83.8,48.8,82.3,50.3z"/>
	<path class="st1" d="M114.3,50.3c-3.1,3.2-3.1,8.2,0,11.4c3.1,3.1,8.2,3.1,11.4,0c3.1-3.1,3.1-8.2,0-11.4
		C122.5,47.4,117.5,47.4,114.3,50.3z"/>
	<path class="st0" d="M464,112H48v112h416V112z M448,208H64v-80h384V208z"/>
	<path class="st0" d="M192,240H48v224h144V240z M176,448H64V256h112V448z"/>
	<path class="st0" d="M208,344h256V240H208V344z M224,256h224v72H224V256z"/>
	<path class="st0" d="M208,464h256V360H208V464z M224,376h224v72H224V376z"/>
</g>
</svg>
